<svg xmlns="http://www.w3.org/2000/svg" width="32" height="32" viewBox="0 0 32 32" fill="none">
  <path d="M3.99936 4.41604H2.74936V6.91604H3.99936V4.41604ZM27.9994 6.91604H29.2494V4.41604H27.9994V6.91604ZM26.5827 5.66604C26.5827 4.97568 26.023 4.41604 25.3327 4.41604C24.6423 4.41604 24.0827 4.97568 24.0827 5.66604H26.5827ZM7.91603 5.66604C7.91603 4.97568 7.35638 4.41604 6.66603 4.41604C5.97567 4.41604 5.41603 4.97568 5.41603 5.66604H7.91603ZM14.5827 11.8883V10.6383H12.0827V11.8883H14.5827ZM12.0827 22.5549V23.8049H14.5827V22.5549H12.0827ZM19.916 11.8883V10.6383H17.416V11.8883H19.916ZM17.416 22.5549V23.8049H19.916V22.5549H17.416ZM12.4438 1.99219H11.1938V4.49219H12.4438V1.99219ZM19.5549 4.49219H20.8049V1.99219H19.5549V4.49219ZM3.99936 6.91604H27.9994V4.41604H3.99936V6.91604ZM24.0827 5.66604V26.1105H26.5827V5.66604H24.0827ZM24.0827 26.1105C24.0827 26.3706 23.94 26.7354 23.6155 27.0599C23.2909 27.3845 22.9262 27.5271 22.666 27.5271V30.0271C23.7392 30.0271 24.7078 29.5031 25.3832 28.8277C26.0587 28.1523 26.5827 27.1837 26.5827 26.1105H24.0827ZM22.666 27.5271H9.33269V30.0271H22.666V27.5271ZM9.33269 27.5271C9.07257 27.5271 8.70781 27.3845 8.38324 27.0599C8.05868 26.7354 7.91603 26.3706 7.91603 26.1105H5.41603C5.41603 27.1837 5.94004 28.1523 6.61548 28.8277C7.29091 29.5031 8.25949 30.0271 9.33269 30.0271V27.5271ZM7.91603 26.1105V5.66604H5.41603V26.1105H7.91603ZM12.0827 11.8883V22.5549H14.5827V11.8883H12.0827ZM17.416 11.8883V22.5549H19.916V11.8883H17.416ZM12.4438 4.49219H19.5549V1.99219H12.4438V4.49219Z" fill="#BCCED1"/>
</svg>