<svg xmlns="http://www.w3.org/2000/svg" width="32" height="32" viewBox="0 0 32 32" fill="none">
  <path d="M3.55554 15.9983L2.40306 15.5142L2.19977 15.9983L2.40306 16.4823L3.55554 15.9983ZM28.4444 15.9983L29.5969 16.4823L29.8002 15.9983L29.5969 15.5142L28.4444 15.9983ZM3.55554 15.9983C4.70802 16.4823 4.70784 16.4827 4.70767 16.4831C4.70763 16.4832 4.70747 16.4836 4.7074 16.4838C4.70725 16.4841 4.70715 16.4844 4.70711 16.4845C4.70703 16.4846 4.70718 16.4843 4.70754 16.4834C4.70828 16.4817 4.7099 16.478 4.71243 16.4722C4.71747 16.4606 4.72611 16.441 4.73836 16.4139C4.76287 16.3598 4.80181 16.2758 4.85546 16.1663C4.96285 15.9472 5.12857 15.6269 5.35471 15.2392C5.80842 14.4614 6.4974 13.4261 7.4356 12.3951C9.3141 10.3308 12.1144 8.35938 16 8.35938V5.85938C11.1745 5.85938 7.75254 8.33236 5.58659 10.7125C4.50258 11.9037 3.71377 13.0907 3.19526 13.9795C2.93529 14.4252 2.74129 14.7993 2.61048 15.0663C2.54503 15.1999 2.49526 15.3069 2.46083 15.383C2.44361 15.421 2.43022 15.4513 2.42061 15.4734C2.4158 15.4844 2.41194 15.4934 2.40902 15.5002C2.40756 15.5036 2.40633 15.5065 2.40534 15.5088C2.40484 15.51 2.40441 15.511 2.40403 15.5119C2.40384 15.5124 2.4036 15.513 2.4035 15.5132C2.40328 15.5137 2.40306 15.5142 3.55554 15.9983ZM16 8.35938C19.8856 8.35938 22.6859 10.3308 24.5644 12.3951C25.5026 13.4261 26.1916 14.4614 26.6453 15.2392C26.8714 15.6269 27.0371 15.9472 27.1445 16.1663C27.1982 16.2758 27.2371 16.3598 27.2616 16.4139C27.2739 16.441 27.2825 16.4606 27.2875 16.4722C27.2901 16.478 27.2917 16.4817 27.2924 16.4834C27.2928 16.4843 27.2929 16.4846 27.2929 16.4845C27.2928 16.4844 27.2927 16.4841 27.2926 16.4838C27.2925 16.4836 27.2923 16.4832 27.2923 16.4831C27.2921 16.4827 27.292 16.4823 28.4444 15.9983C29.5969 15.5142 29.5967 15.5137 29.5965 15.5132C29.5964 15.513 29.5961 15.5124 29.5959 15.5119C29.5956 15.511 29.5951 15.51 29.5946 15.5088C29.5936 15.5065 29.5924 15.5036 29.591 15.5002C29.588 15.4934 29.5842 15.4844 29.5794 15.4734C29.5698 15.4513 29.5564 15.421 29.5391 15.383C29.5047 15.3069 29.4549 15.1999 29.3895 15.0663C29.2587 14.7993 29.0647 14.4252 28.8047 13.9795C28.2862 13.0907 27.4974 11.9037 26.4134 10.7125C24.2474 8.33236 20.8255 5.85938 16 5.85938V8.35938ZM28.4444 15.9983C27.292 15.5142 27.2921 15.5138 27.2923 15.5134C27.2923 15.5133 27.2925 15.5129 27.2926 15.5127C27.2927 15.5124 27.2928 15.5122 27.2929 15.5121C27.2929 15.5119 27.2928 15.5122 27.2924 15.5131C27.2917 15.5148 27.2901 15.5186 27.2875 15.5244C27.2825 15.536 27.2739 15.5555 27.2616 15.5826C27.2371 15.6368 27.1982 15.7207 27.1445 15.8302C27.0371 16.0493 26.8714 16.3696 26.6453 16.7573C26.1916 17.5351 25.5026 18.5704 24.5644 19.6014C22.6859 21.6657 19.8856 23.6372 16 23.6372V26.1372C20.8255 26.1372 24.2474 23.6642 26.4134 21.284C27.4974 20.0928 28.2862 18.9059 28.8047 18.017C29.0647 17.5713 29.2587 17.1972 29.3895 16.9302C29.4549 16.7967 29.5047 16.6896 29.5391 16.6136C29.5564 16.5755 29.5698 16.5452 29.5794 16.5232C29.5842 16.5121 29.588 16.5032 29.591 16.4963C29.5924 16.4929 29.5936 16.49 29.5946 16.4877C29.5951 16.4865 29.5956 16.4855 29.5959 16.4846C29.5961 16.4841 29.5964 16.4836 29.5965 16.4833C29.5967 16.4828 29.5969 16.4823 28.4444 15.9983ZM16 23.6372C12.1144 23.6372 9.3141 21.6657 7.4356 19.6014C6.4974 18.5704 5.80842 17.5351 5.35471 16.7573C5.12857 16.3696 4.96285 16.0493 4.85546 15.8302C4.80181 15.7207 4.76287 15.6368 4.73836 15.5826C4.72611 15.5555 4.71747 15.536 4.71243 15.5244C4.7099 15.5186 4.70828 15.5148 4.70754 15.5131C4.70718 15.5122 4.70703 15.5119 4.70711 15.5121C4.70715 15.5122 4.70725 15.5124 4.7074 15.5127C4.70747 15.5129 4.70763 15.5133 4.70767 15.5134C4.70784 15.5138 4.70802 15.5142 3.55554 15.9983C2.40306 16.4823 2.40328 16.4828 2.4035 16.4833C2.4036 16.4836 2.40384 16.4841 2.40403 16.4846C2.40441 16.4855 2.40484 16.4865 2.40534 16.4877C2.40633 16.49 2.40756 16.4929 2.40902 16.4963C2.41194 16.5032 2.4158 16.5121 2.42061 16.5232C2.43022 16.5452 2.44361 16.5755 2.46083 16.6136C2.49526 16.6896 2.54503 16.7967 2.61048 16.9302C2.74129 17.1972 2.93529 17.5713 3.19526 18.017C3.71377 18.9059 4.50258 20.0928 5.58659 21.284C7.75254 23.6642 11.1745 26.1372 16 26.1372V23.6372Z" fill="#BCCED1"/>
  <path d="M14.2222 15.9987C14.2222 14.4569 14.7972 13.3061 15.3778 12.532C15.5962 12.2408 15.8142 12.0048 16 11.8246C16.1857 12.0048 16.4038 12.2408 16.6222 12.532C17.2028 13.3061 17.7778 14.4569 17.7778 15.9987C17.7778 17.5405 17.2028 18.6913 16.6222 19.4654C16.4038 19.7566 16.1857 19.9926 16 20.1728C15.8142 19.9926 15.5962 19.7566 15.3778 19.4654C14.7972 18.6913 14.2222 17.5405 14.2222 15.9987Z" fill="#BCCED1" stroke="#BCCED1" stroke-width="1.77778"/>
</svg>